<svg width="14" height="16" viewBox="0 0 14 16" fill="none" xmlns="http://www.w3.org/2000/svg">
<path d="M5.28267 12.7465L1.38346 8.48847C1.36097 8.46391 1.34312 8.43472 1.33095 8.40256C1.31877 8.3704 1.3125 8.33592 1.3125 8.30109C1.3125 8.26627 1.31877 8.23178 1.33095 8.19962C1.34312 8.16747 1.36097 8.13827 1.38346 8.11371L2.36783 7.03149C2.46189 6.92819 2.61392 6.92819 2.70799 7.03149L5.27502 9.83375C5.36908 9.93705 5.52221 9.93585 5.61627 9.83255L11.2885 3.54337C11.3825 3.43887 11.5356 3.43887 11.6308 3.54217L12.6163 4.6244C12.7103 4.7277 12.7103 4.89465 12.6174 4.99795L6.43767 11.8457L6.43877 11.8469L5.62392 12.7465C5.52986 12.8498 5.37674 12.8498 5.28267 12.7465Z" fill="#585757"/>
</svg>
