<svg width="68" height="12" viewBox="0 0 68 12" fill="none" xmlns="http://www.w3.org/2000/svg">
<path d="M10.6415 4.13829L7.66615 3.70586L6.33608 1.00938C6.29975 0.935551 6.23998 0.875786 6.16615 0.839457C5.981 0.748051 5.756 0.824223 5.66342 1.00938L4.33334 3.70586L1.35795 4.13829C1.27592 4.15 1.20092 4.18868 1.1435 4.24727C1.07408 4.31862 1.03582 4.41461 1.03714 4.51416C1.03846 4.6137 1.07924 4.70864 1.15053 4.77813L3.30326 6.87696L2.79467 9.84063C2.78274 9.90957 2.79037 9.98048 2.81669 10.0453C2.84301 10.1101 2.88697 10.1663 2.94358 10.2074C3.00019 10.2485 3.06719 10.2729 3.13697 10.2779C3.20676 10.2829 3.27655 10.2682 3.33842 10.2356L5.99975 8.83633L8.66108 10.2356C8.73373 10.2742 8.81811 10.2871 8.89897 10.2731C9.10287 10.2379 9.23998 10.0445 9.20483 9.84063L8.69623 6.87696L10.849 4.77813C10.9076 4.72071 10.9462 4.64571 10.958 4.56368C10.9896 4.3586 10.8466 4.16875 10.6415 4.13829V4.13829Z" fill="#FFD168"/>
<path d="M24.6415 4.13829L21.6662 3.70586L20.3361 1.00938C20.2997 0.935551 20.24 0.875786 20.1662 0.839457C19.981 0.748051 19.756 0.824223 19.6634 1.00938L18.3333 3.70586L15.358 4.13829C15.2759 4.15 15.2009 4.18868 15.1435 4.24727C15.0741 4.31862 15.0358 4.41461 15.0371 4.51416C15.0385 4.6137 15.0792 4.70864 15.1505 4.77813L17.3033 6.87696L16.7947 9.84063C16.7827 9.90957 16.7904 9.98048 16.8167 10.0453C16.843 10.1101 16.887 10.1663 16.9436 10.2074C17.0002 10.2485 17.0672 10.2729 17.137 10.2779C17.2068 10.2829 17.2765 10.2682 17.3384 10.2356L19.9997 8.83633L22.6611 10.2356C22.7337 10.2742 22.8181 10.2871 22.899 10.2731C23.1029 10.2379 23.24 10.0445 23.2048 9.84063L22.6962 6.87696L24.849 4.77813C24.9076 4.72071 24.9462 4.64571 24.958 4.56368C24.9896 4.3586 24.8466 4.16875 24.6415 4.13829V4.13829Z" fill="#FFD168"/>
<path d="M38.6415 4.13829L35.6662 3.70586L34.3361 1.00938C34.2997 0.935551 34.24 0.875786 34.1662 0.839457C33.981 0.748051 33.756 0.824223 33.6634 1.00938L32.3333 3.70586L29.358 4.13829C29.2759 4.15 29.2009 4.18868 29.1435 4.24727C29.0741 4.31862 29.0358 4.41461 29.0371 4.51416C29.0385 4.6137 29.0792 4.70864 29.1505 4.77813L31.3033 6.87696L30.7947 9.84063C30.7827 9.90957 30.7904 9.98048 30.8167 10.0453C30.843 10.1101 30.887 10.1663 30.9436 10.2074C31.0002 10.2485 31.0672 10.2729 31.137 10.2779C31.2068 10.2829 31.2765 10.2682 31.3384 10.2356L33.9997 8.83633L36.6611 10.2356C36.7337 10.2742 36.8181 10.2871 36.899 10.2731C37.1029 10.2379 37.24 10.0445 37.2048 9.84063L36.6962 6.87696L38.849 4.77813C38.9076 4.72071 38.9462 4.64571 38.958 4.56368C38.9896 4.3586 38.8466 4.16875 38.6415 4.13829V4.13829Z" fill="#FFD168"/>
<path d="M52.6415 4.13829L49.6662 3.70586L48.3361 1.00938C48.2997 0.935551 48.24 0.875786 48.1662 0.839457C47.981 0.748051 47.756 0.824223 47.6634 1.00938L46.3333 3.70586L43.358 4.13829C43.2759 4.15 43.2009 4.18868 43.1435 4.24727C43.0741 4.31862 43.0358 4.41461 43.0371 4.51416C43.0385 4.6137 43.0792 4.70864 43.1505 4.77813L45.3033 6.87696L44.7947 9.84063C44.7827 9.90957 44.7904 9.98048 44.8167 10.0453C44.843 10.1101 44.887 10.1663 44.9436 10.2074C45.0002 10.2485 45.0672 10.2729 45.137 10.2779C45.2068 10.2829 45.2765 10.2682 45.3384 10.2356L47.9997 8.83633L50.6611 10.2356C50.7337 10.2742 50.8181 10.2871 50.899 10.2731C51.1029 10.2379 51.24 10.0445 51.2048 9.84063L50.6962 6.87696L52.849 4.77813C52.9076 4.72071 52.9462 4.64571 52.958 4.56368C52.9896 4.3586 52.8466 4.16875 52.6415 4.13829V4.13829Z" fill="#FFD168"/>
<path d="M58.5125 9.8243C58.4954 9.89323 58.4951 9.96492 58.5116 10.034C58.5282 10.103 58.5611 10.1677 58.608 10.2231C58.6549 10.2784 58.7145 10.3231 58.7824 10.3538C58.8503 10.3844 58.9247 10.4002 59 10.4C59.0988 10.4 59.1954 10.3725 59.2775 10.321L62 8.61511L64.7226 10.321C64.8077 10.3742 64.9082 10.4016 65.0104 10.3994C65.1126 10.3973 65.2117 10.3659 65.2943 10.3093C65.3769 10.2527 65.439 10.1736 65.4724 10.0828C65.5058 9.992 65.5088 9.89375 65.4811 9.80128L64.5666 6.79357L66.8346 4.87522C66.9072 4.81375 66.9591 4.73361 66.9838 4.64472C67.0085 4.55582 67.0049 4.46208 66.9735 4.37507C66.9421 4.28806 66.8843 4.21161 66.8072 4.15517C66.73 4.09873 66.637 4.06477 66.5396 4.0575L63.6891 3.84414L62.4555 1.27773C62.4163 1.19507 62.3524 1.12486 62.2716 1.07558C62.1908 1.0263 62.0965 1.00005 62.0002 1C61.9039 0.99995 61.8096 1.0261 61.7288 1.0753C61.6479 1.1245 61.5839 1.19464 61.5445 1.27726L60.311 3.84414L57.4605 4.05703C57.3647 4.06416 57.2732 4.09708 57.1968 4.15184C57.1204 4.2066 57.0624 4.28088 57.0298 4.36581C56.9971 4.45073 56.9912 4.5427 57.0127 4.63071C57.0342 4.71872 57.0822 4.79904 57.151 4.86206L59.258 6.79216L58.5125 9.8243ZM62 2.6124L63.021 4.73706L63.315 4.75914H63.3155L65.3016 4.90718L63.6661 6.29072L63.6656 6.29166L63.4341 6.48716L63.5196 6.76773V6.76914L64.1461 8.82988L62 7.48534V2.6124Z" fill="#FFD168"/>
</svg>
